# xmcd
#
# Track frame offsets: 
#        150
#        22914
#        42312
#        63573
#        80401
#        100365
#        119497
#        141239
#        167260
#        189049
#
# Disc length: 2803 seconds
#
# Revision: 1
# Processed by: cddbd v1.5.2PL0 Copyright (c) Steve Scherf et al.
# Submitted via: ExactAudioCopy v0.99pb5
#
DISCID=7b0af10a
DTITLE=Uli Gutscher and Werner Acker - Duo Conceptions
DYEAR=1900
DGENRE=Jazz
TTITLE0=Introduction - God Bless The Child
TTITLE1=Our Love Is Here To Stay
TTITLE2=Thinkin' Of You
TTITLE3=Come Sunday
TTITLE4=Triple Trouble
TTITLE5=Polkadots And Moonbeams
TTITLE6=La Fiesta
TTITLE7=Flat Foot Blues
TTITLE8=Autumn Waltz
TTITLE9=LIPA
EXTD=
EXTT0=
EXTT1=
EXTT2=
EXTT3=
EXTT4=
EXTT5=
EXTT6=
EXTT7=
EXTT8=
EXTT9=
PLAYORDER=
